# xmcd
#
# Track frame offsets: 
#        150
#        15895
#        32277
#        50885
#        64743
#        87264
#        107830
#        126929
#        148957
#        166582
#        185291
#
# Disc length: 2659 seconds
#
# Revision: 0
# Processed by: cddbd v1.5.2PL0 Copyright (c) Steve Scherf et al.
# Submitted via: ExactAudioCopyFreeDBPlugin 1.0
#
DISCID=8b0a610b
DTITLE=Sophia Kennedy - Sophia Kennedy
DYEAR=2018
DGENRE=No, thanks.
TTITLE0=Build Me A House
TTITLE1=Dizzy Izzy
TTITLE2=William By The Windowsill
TTITLE3=Being Special
TTITLE4=Kimono Hill
TTITLE5=3.05
TTITLE6=Something Is Coming My Way
TTITLE7=A Bug On A Rug In A Building
TTITLE8=Foam
TTITLE9=Baltimore
TTITLE10=Hello, I Found You
EXTD=
EXTT0=
EXTT1=
EXTT2=
EXTT3=
EXTT4=
EXTT5=
EXTT6=
EXTT7=
EXTT8=
EXTT9=
EXTT10=
PLAYORDER=
